<?xml version="1.0" encoding="utf-8"?>
<!-- Generator: Adobe Illustrator 26.4.1, SVG Export Plug-In . SVG Version: 6.00 Build 0)  -->
<svg version="1.1" id="Слой_1" xmlns="http://www.w3.org/2000/svg" xmlns:xlink="http://www.w3.org/1999/xlink" x="0px" y="0px"
	 viewBox="0 0 31.9 29" style="enable-background:new 0 0 31.9 29;" xml:space="preserve">
<style type="text/css">
	.st0{fill:#E8E8E8;}
</style>
<path class="st0" d="M-42.8,77.3c4.5,0,8.2-4.5,8.2-10s-3.7-10-8.2-10c-1.1,0-2.3,0.3-3.3,0.8c-1,0.5-1.9,1.3-2.6,2.2
	c-1.5,2-2.4,4.5-2.3,7C-50.9,72.8-47.3,77.3-42.8,77.3z M-42.8,59.1c3.5,0,6.3,3.7,6.3,8.2s-2.8,8.2-6.3,8.2s-6.3-3.7-6.3-8.2
	S-46.3,59.1-42.8,59.1z M-36.4,75.5c-0.2,0-0.5,0.1-0.6,0.3c-0.2,0.2-0.3,0.4-0.3,0.6s0.1,0.5,0.3,0.6c0.2,0.2,0.4,0.3,0.6,0.3
	c1.7,0,3.3,0.7,4.5,1.9c1.2,1.2,1.9,2.8,1.9,4.5c0,0.2-0.1,0.5-0.3,0.6c-0.2,0.2-0.4,0.3-0.6,0.3h-23.6c-0.2,0-0.5-0.1-0.6-0.3
	c-0.2-0.2-0.3-0.4-0.3-0.6c0-1.7,0.7-3.3,1.9-4.5c1.2-1.2,2.8-1.9,4.5-1.9c0.2,0,0.5-0.1,0.6-0.3s0.3-0.4,0.3-0.6
	c0-0.2-0.1-0.5-0.3-0.6s-0.4-0.3-0.6-0.3c-2.2,0-4.2,0.9-5.8,2.4c-1.5,1.5-2.4,3.6-2.4,5.8c0,0.7,0.3,1.4,0.8,1.9
	c0.5,0.5,1.2,0.8,1.9,0.8H-31c0.7,0,1.4-0.3,1.9-0.8c0.5-0.5,0.8-1.2,0.8-1.9c0-2.2-0.9-4.2-2.4-5.8C-32.2,76.3-34.3,75.5-36.4,75.5
	z"/>
<path class="st0" d="M26.2,29c-0.6,0-1.3-0.3-1.7-0.8c-0.4-0.5-0.7-1.1-0.7-1.7c0-0.6,0.3-1.3,0.7-1.7c0.5-0.5,1.1-0.7,1.7-0.7
	c0.6,0,1.3,0.3,1.7,0.7c0.5,0.5,0.7,1.1,0.7,1.7c0,0.6-0.2,1.3-0.7,1.7C27.7,28.7,27,29,26.4,29H26.2z M6.8,26.3
	c0-0.5,0.2-1,0.5-1.5c0.3-0.4,0.7-0.8,1.2-1c0.5-0.2,1-0.3,1.5-0.2c0.5,0.1,1,0.4,1.4,0.7c0.4,0.4,0.6,0.9,0.7,1.4
	c0.1,0.5,0.1,1.1-0.2,1.5s-0.5,0.9-1,1.2c-0.4,0.3-1,0.5-1.5,0.5c-0.4,0-0.7-0.1-1-0.2c-0.3-0.1-0.6-0.3-0.9-0.6
	C7.3,28,7.1,27.7,7,27.3C6.8,27,6.8,26.7,6.8,26.3L6.8,26.3z M10.6,20.7c-0.3,0-0.5-0.1-0.7-0.2c-0.2-0.2-0.4-0.4-0.4-0.6L4.6,2.4
	H1.2C0.9,2.4,0.6,2.2,0.3,2C0.1,1.8,0,1.5,0,1.2c0-0.3,0.1-0.6,0.3-0.8C0.6,0.1,0.9,0,1.2,0h4.3C5.7,0,6,0.1,6.2,0.2
	c0.2,0.2,0.4,0.4,0.4,0.6l4.8,17.5h13.2l4.4-10H14.4c-0.2,0-0.3,0-0.5-0.1c-0.1-0.1-0.3-0.1-0.4-0.3c-0.1-0.1-0.2-0.2-0.3-0.4
	c-0.1-0.1-0.1-0.3-0.1-0.5c0-0.2,0-0.3,0.1-0.5c0.1-0.1,0.2-0.3,0.3-0.4C13.7,6.1,13.8,6,13.9,6c0.1-0.1,0.3-0.1,0.5-0.1h16.4
	c0.2,0,0.4,0,0.6,0.1c0.2,0.1,0.3,0.2,0.4,0.4C31.9,6.6,32,6.8,32,7c0,0.2,0,0.4-0.1,0.6L26.5,20c-0.1,0.2-0.2,0.4-0.4,0.5
	c-0.2,0.1-0.4,0.2-0.6,0.2H10.6z"/>
</svg>
