<?xml version="1.0" encoding="utf-8"?>
<!-- Generator: Adobe Illustrator 26.4.1, SVG Export Plug-In . SVG Version: 6.00 Build 0)  -->
<svg version="1.1" id="Слой_1" xmlns="http://www.w3.org/2000/svg" xmlns:xlink="http://www.w3.org/1999/xlink" x="0px" y="0px"
	 viewBox="0 0 26 27.3" style="enable-background:new 0 0 26 27.3;" xml:space="preserve">
<style type="text/css">
	.st0{fill:#E8E8E8;}
	.st1{fill:none;}
</style>
<path class="st0" d="M18.1,17.4c1.6-1.8,2.6-4,2.7-6.4c0.1-2.4-0.5-4.7-1.9-6.7s-3.4-3.3-5.7-4c-2.3-0.6-4.8-0.4-6.9,0.5
	c-2.2,1-4,2.7-5.1,4.8c-1.1,2.1-1.4,4.6-0.9,6.9C0.7,14.9,2,17,3.9,18.5c1.9,1.5,4.2,2.3,6.6,2.3c2.3,0,4.4-0.7,6.2-2.1l7.7,7.8
	c0.1,0.1,0.2,0.2,0.3,0.2c0.1,0,0.2,0.1,0.4,0.1c0.1,0,0.2,0,0.4-0.1c0.1,0,0.2-0.1,0.3-0.2c0.2-0.2,0.3-0.4,0.3-0.7
	c0-0.3-0.1-0.5-0.3-0.7L18.1,17.4z M1.9,10.3c0-1.7,0.5-3.3,1.5-4.7c0.9-1.4,2.3-2.5,3.8-3.1c1.6-0.6,3.3-0.8,4.9-0.5
	c1.7,0.3,3.2,1.2,4.4,2.4c1.2,1.2,2,2.7,2.3,4.4c0.3,1.7,0.2,3.4-0.5,4.9c-0.6,1.6-1.7,2.9-3.1,3.8c-1.4,0.9-3,1.4-4.7,1.4
	c-2.3,0-4.4-0.9-6-2.5C2.8,14.7,1.9,12.6,1.9,10.3z"/>
<rect x="-85" y="-10.2" class="st1" width="44" height="38"/>
</svg>
