<?xml version="1.0" encoding="utf-8"?>
<!-- Generator: Adobe Illustrator 26.4.1, SVG Export Plug-In . SVG Version: 6.00 Build 0)  -->
<svg version="1.1" id="Слой_1" xmlns="http://www.w3.org/2000/svg" xmlns:xlink="http://www.w3.org/1999/xlink" x="0px" y="0px"
	 viewBox="0 0 29 29.1" style="enable-background:new 0 0 29 29.1;" xml:space="preserve">
<style type="text/css">
	.st0{fill:#E8E8E8;}
</style>
<path class="st0" d="M14.5,20c4.5,0,8.2-4.5,8.2-10s-3.7-10-8.2-10c-1.1,0-2.3,0.3-3.3,0.8c-1,0.5-1.9,1.3-2.6,2.2
	c-1.5,2-2.4,4.5-2.3,7C6.3,15.5,10,20,14.5,20z M14.5,1.9c3.5,0,6.3,3.7,6.3,8.2s-2.8,8.2-6.3,8.2S8.2,14.5,8.2,10S11,1.9,14.5,1.9z
	 M20.8,18.2c-0.2,0-0.5,0.1-0.6,0.3c-0.2,0.2-0.3,0.4-0.3,0.6s0.1,0.5,0.3,0.6c0.2,0.2,0.4,0.3,0.6,0.3c1.7,0,3.3,0.7,4.5,1.9
	c1.2,1.2,1.9,2.8,1.9,4.5c0,0.2-0.1,0.5-0.3,0.6c-0.2,0.2-0.4,0.3-0.6,0.3H2.7c-0.2,0-0.5-0.1-0.6-0.3c-0.2-0.2-0.3-0.4-0.3-0.6
	c0-1.7,0.7-3.3,1.9-4.5C4.9,20.7,6.5,20,8.2,20c0.2,0,0.5-0.1,0.6-0.3c0.2-0.2,0.3-0.4,0.3-0.6c0-0.2-0.1-0.5-0.3-0.6
	c-0.2-0.2-0.4-0.3-0.6-0.3c-2.2,0-4.2,0.9-5.8,2.4C0.9,22.1,0,24.2,0,26.4c0,0.7,0.3,1.4,0.8,1.9c0.5,0.5,1.2,0.8,1.9,0.8h23.6
	c0.7,0,1.4-0.3,1.9-0.8s0.8-1.2,0.8-1.9c0-2.2-0.9-4.2-2.4-5.8C25.1,19.1,23,18.2,20.8,18.2z"/>
</svg>
